# Blender v2.63 (sub 0) OBJ File: 'Dwarf.blend'
# www.blender.org
mtllib Dwarf.mtl
o Cube.017
v 0.500000 1.119355 0.176812
v 0.500000 1.119355 -0.260688
v 0.812500 1.119355 -0.260688
v 0.812500 1.119355 0.176812
v 0.500000 1.869355 0.176812
v 0.500000 1.869355 -0.260688
v 0.812500 1.869355 -0.260688
v 0.812500 1.869355 0.176812
v 0.500000 0.994355 -0.385688
v 0.500000 0.994355 0.364312
v 0.500000 1.994355 -0.385688
v 0.500000 1.994355 0.364312
v 0.562500 0.869355 0.114312
v 0.562500 0.869355 -0.198188
v 0.750000 0.869355 -0.198188
v 0.750000 0.869355 0.114312
v 0.562500 1.119355 0.114312
v 0.562500 1.119355 -0.198188
v 0.750000 1.119355 -0.198188
v 0.750000 1.119355 0.114312
v 0.375000 1.994355 -0.323188
v 0.375000 1.994355 0.301812
v 0.375000 2.494355 -0.323188
v 0.375000 2.494355 0.301812
v 0.437500 2.369355 0.426812
v 0.437500 2.369355 -0.448188
v 0.250000 2.369355 0.364312
v 0.250000 2.369355 0.239312
v 0.125000 2.369355 0.239312
v 0.125000 2.369355 0.364312
v 0.250000 2.244355 0.364312
v 0.250000 2.244355 0.239312
v 0.125000 2.244355 0.239312
v 0.125000 2.244355 0.364312
v 0.187500 1.181855 0.364312
v 0.187500 1.181855 0.489312
v 0.187500 1.431855 0.364312
v 0.187500 1.431855 0.489312
v 0.125000 0.369355 -0.198188
v 0.437500 0.369355 -0.198188
v 0.125000 0.806855 0.176812
v 0.125000 0.806855 -0.198188
v 0.437500 0.806855 -0.198188
v 0.437500 0.806855 0.176812
v 0.062500 -0.005645 0.239312
v 0.062500 -0.005645 -0.260688
v 0.500000 -0.005645 -0.260688
v 0.500000 -0.005645 0.239312
v 0.062500 0.494355 0.239312
v 0.062500 0.494355 -0.260688
v 0.500000 0.494355 -0.260688
v 0.500000 0.494355 0.239312
v 0.062500 0.244355 -0.260688
v 0.062500 0.244355 0.239312
v 0.500000 0.244355 -0.260688
v 0.500000 0.244355 0.239312
v 0.437500 2.619355 0.426812
v 0.437500 2.619355 -0.448188
v 0.500000 0.244355 0.364312
v 0.062500 0.244355 0.364312
v 0.500000 -0.005645 0.364312
v 0.062500 -0.005645 0.364312
v 0.312500 2.494355 -0.323188
v 0.312500 2.494355 0.301812
v 0.312500 2.681855 -0.323188
v 0.312500 2.681855 0.301812
v 0.562500 1.119355 0.426812
v 0.562500 1.119355 -0.448188
v 0.562500 1.494355 0.426812
v 0.562500 1.494355 -0.448188
v 0.062500 2.119355 0.239312
v 0.062500 2.119355 0.364312
v 0.062500 2.244355 0.239312
v 0.062500 2.244355 0.364312
v 0.062500 2.494355 -0.385688
v 0.062500 2.494355 0.364312
v 0.062500 2.744355 -0.385688
v 0.062500 2.744355 0.364312
v 0.375000 2.494355 -0.073188
v 0.375000 2.494355 0.051812
v 0.375000 2.744355 -0.073188
v 0.375000 2.744355 0.051812
v 0.500000 0.744355 -0.323188
v 0.500000 0.744355 0.301812
v 0.312500 2.056855 0.426812
v 0.312500 2.056855 0.301812
v 0.312500 1.931855 0.426812
v 0.312500 1.931855 0.301812
v 0.125000 2.056855 0.426812
v 0.125000 2.056855 0.301812
v 0.125000 1.931855 0.426812
v 0.125000 1.931855 0.301812
v 0.312500 1.806855 0.426812
v 0.312500 1.806855 0.301812
v 0.125000 1.806855 0.426812
v 0.125000 1.806855 0.301812
v 0.187500 1.931855 0.301812
v 0.187500 1.931855 0.426812
v 0.187500 2.056855 0.301812
v 0.187500 2.056855 0.426812
v 0.187500 1.806855 0.426812
v 0.187500 1.806855 0.301812
v 0.312500 1.681855 0.426812
v 0.312500 1.681855 0.301812
v 0.187500 1.681855 0.426812
v 0.187500 1.681855 0.301812
v 0.125000 2.119355 0.426812
v 0.125000 2.119355 0.301812
v 0.187500 2.119355 0.301812
v 0.187500 2.119355 0.426812
v -0.500000 0.994355 -0.385688
v -0.500000 0.994355 0.364312
v -0.500000 1.994355 -0.385688
v -0.500000 1.994355 0.364312
v -0.500000 1.119355 0.176812
v -0.500000 1.119355 -0.260688
v -0.812500 1.119355 -0.260688
v -0.812500 1.119355 0.176812
v -0.500000 1.869355 0.176812
v -0.500000 1.869355 -0.260688
v -0.812500 1.869355 -0.260688
v -0.812500 1.869355 0.176812
v -0.562500 0.869355 0.114312
v -0.562500 0.869355 -0.198188
v -0.750000 0.869355 -0.198188
v -0.750000 0.869355 0.114312
v -0.562500 1.119355 0.114312
v -0.562500 1.119355 -0.198188
v -0.750000 1.119355 -0.198188
v -0.750000 1.119355 0.114312
v -0.375000 1.994355 -0.323188
v -0.375000 1.994355 0.301812
v -0.375000 2.494355 -0.323188
v -0.375000 2.494355 0.301812
v -0.437500 2.369355 0.426812
v -0.437500 2.369355 -0.448188
v -0.250000 2.369355 0.364312
v -0.250000 2.369355 0.239312
v -0.125000 2.369355 0.239312
v -0.125000 2.369355 0.364312
v -0.250000 2.244355 0.364312
v -0.250000 2.244355 0.239312
v -0.125000 2.244355 0.239312
v -0.125000 2.244355 0.364312
v -0.187500 1.181855 0.364312
v -0.187500 1.181855 0.489312
v -0.187500 1.431855 0.364312
v -0.187500 1.431855 0.489312
v -0.125000 0.369355 -0.198188
v -0.437500 0.369355 -0.198188
v -0.125000 0.806855 0.176812
v -0.125000 0.806855 -0.198188
v -0.437500 0.806855 -0.198188
v -0.437500 0.806855 0.176812
v -0.062500 -0.005645 0.239312
v -0.062500 -0.005645 -0.260688
v -0.500000 -0.005645 -0.260688
v -0.500000 -0.005645 0.239312
v -0.062500 0.494355 0.239312
v -0.062500 0.494355 -0.260688
v -0.500000 0.494355 -0.260688
v -0.500000 0.494355 0.239312
v -0.062500 0.244355 -0.260688
v -0.062500 0.244355 0.239312
v -0.500000 0.244355 -0.260688
v -0.500000 0.244355 0.239312
v -0.437500 2.619355 0.426812
v -0.437500 2.619355 -0.448188
v -0.000000 2.681855 -0.323188
v -0.000000 2.681855 0.301812
v -0.500000 0.244355 0.364312
v -0.062500 0.244355 0.364312
v -0.500000 -0.005645 0.364312
v -0.062500 -0.005645 0.364312
v -0.312500 2.494355 -0.323188
v -0.312500 2.494355 0.301812
v -0.000000 2.369355 -0.448188
v -0.000000 2.369355 0.426812
v -0.000000 2.619355 0.426812
v -0.000000 2.619355 -0.448188
v -0.000000 2.494355 0.301812
v -0.000000 2.494355 -0.323188
v -0.312500 2.681855 -0.323188
v -0.312500 2.681855 0.301812
v -0.562500 1.119355 0.426812
v -0.562500 1.119355 -0.448188
v -0.562500 1.494355 0.426812
v -0.562500 1.494355 -0.448188
v -0.062500 2.119355 0.239312
v -0.062500 2.119355 0.364312
v -0.062500 2.244355 0.239312
v -0.062500 2.244355 0.364312
v -0.062500 2.494355 -0.385688
v -0.062500 2.494355 0.364312
v -0.062500 2.744355 -0.385688
v -0.062500 2.744355 0.364312
v -0.000000 2.744355 -0.073188
v -0.000000 2.744355 0.051812
v -0.375000 2.494355 -0.073188
v -0.375000 2.494355 0.051812
v -0.000000 2.494355 0.051812
v -0.000000 2.494355 -0.073188
v -0.375000 2.744355 -0.073188
v -0.375000 2.744355 0.051812
v -0.500000 0.744355 -0.323188
v -0.500000 0.744355 0.301812
v -0.500000 0.994355 -0.323188
v -0.312500 2.056855 0.426812
v -0.312500 2.056855 0.301812
v -0.312500 1.931855 0.426812
v -0.312500 1.931855 0.301812
v -0.125000 2.056855 0.426812
v -0.125000 2.056855 0.301812
v -0.125000 1.931855 0.426812
v -0.125000 1.931855 0.301812
v -0.312500 1.806855 0.426812
v -0.312500 1.806855 0.301812
v -0.125000 1.806855 0.426812
v -0.125000 1.806855 0.301812
v -0.187500 1.931855 0.301812
v -0.187500 1.931855 0.426812
v -0.187500 2.056855 0.301812
v -0.187500 2.056855 0.426812
v -0.187500 1.806855 0.426812
v -0.187500 1.806855 0.301812
v -0.312500 1.681855 0.426812
v -0.312500 1.681855 0.301812
v -0.187500 1.681855 0.426812
v -0.187500 1.681855 0.301812
v -0.125000 2.119355 0.426812
v -0.125000 2.119355 0.301812
v -0.187500 2.119355 0.301812
v -0.187500 2.119355 0.426812
v 0.250000 2.619355 -0.198188
v 0.250000 2.619355 0.176812
v 0.250000 2.806855 -0.198188
v 0.250000 2.806855 0.176812
v -0.000000 2.806855 -0.198188
v -0.000000 2.806855 0.176812
v -0.250000 2.619355 -0.198188
v -0.250000 2.619355 0.176812
v -0.000000 2.619355 0.176812
v -0.000000 2.619355 -0.198188
v -0.250000 2.806855 -0.198188
v -0.250000 2.806855 0.176812
v -0.437500 0.369355 0.176812
v -0.125000 0.369355 0.176812
v 0.437500 0.369355 0.176812
v 0.125000 0.369355 0.176812
v 0.812500 1.494355 -0.260688
v 0.812500 1.494355 0.176812
v 0.500000 1.494355 -0.260688
v 0.500000 1.494355 0.176812
v 0.812500 1.494355 -0.260688
v 0.812500 1.494355 0.176812
v -0.812500 1.494355 0.176812
v -0.500000 1.494355 -0.260688
v -0.500000 1.494355 0.176812
v -0.500000 1.494355 0.176812
v -0.812500 1.494355 0.176812
v -0.812500 1.494355 -0.260688
v -0.500000 1.494355 -0.260688
v -0.812500 1.494355 -0.260688
v 0.500000 1.494355 0.176812
v 0.500000 1.494355 -0.260688
v -0.500000 0.994355 0.301812
v 0.500000 0.994355 -0.323188
v 0.500000 0.994355 0.301812
vt 0.148438 0.554688
vt 0.187500 0.554688
vt 0.187500 0.601562
vt 0.148438 0.601562
vt 0.093750 0.554688
vt 0.093750 0.601562
vt 0.828125 0.554688
vt 0.773438 0.554688
vt 0.773438 0.507812
vt 0.828125 0.507812
vt 0.054688 0.554688
vt 0.054688 0.601562
vt 0.734375 0.507812
vt 0.734375 0.453125
vt 0.773438 0.453125
vt 0.773438 0.601562
vt 0.773438 0.656250
vt 0.734375 0.656250
vt 0.734375 0.601562
vt 0.460938 0.601562
vt 0.335938 0.601562
vt 0.335938 0.476562
vt 0.460938 0.476562
vt 0.664062 0.273438
vt 0.617188 0.273438
vt 0.617188 0.257812
vt 0.664062 0.257812
vt 0.554688 0.476562
vt 0.554688 0.601562
vt 0.679688 0.476562
vt 0.679688 0.601562
vt 0.460938 0.695312
vt 0.335938 0.695312
vt 0.710938 0.453125
vt 0.671875 0.453125
vt 0.671875 0.421875
vt 0.710938 0.421875
vt 0.648438 0.453125
vt 0.648438 0.421875
vt 0.734375 0.421875
vt 0.773438 0.421875
vt 0.710938 0.382812
vt 0.734375 0.382812
vt 0.734375 0.492188
vt 0.710938 0.492188
vt 0.710938 0.828125
vt 0.617188 0.828125
vt 0.617188 0.765625
vt 0.710938 0.765625
vt 0.789062 0.765625
vt 0.789062 0.828125
vt 0.882812 0.765625
vt 0.882812 0.828125
vt 0.390625 0.773438
vt 0.406250 0.773438
vt 0.406250 0.835938
vt 0.390625 0.835938
vt 0.296875 0.601562
vt 0.296875 0.710938
vt 0.242188 0.710938
vt 0.242188 0.601562
vt 0.726562 0.718750
vt 0.726562 0.703125
vt 0.742188 0.703125
vt 0.742188 0.718750
vt 0.742188 0.734375
vt 0.726562 0.734375
vt 0.757812 0.734375
vt 0.757812 0.718750
vt 0.710938 0.734375
vt 0.710938 0.718750
vt 0.742188 0.750000
vt 0.726562 0.750000
vt 0.664062 0.304688
vt 0.617188 0.304688
vt 0.601562 0.320312
vt 0.460938 0.320312
vt 0.460938 0.210938
vt 0.601562 0.210938
vt 0.679688 0.273438
vt 0.679688 0.304688
vt 0.664062 0.320312
vt 0.617188 0.320312
vt 0.585938 0.101562
vt 0.546875 0.101562
vt 0.546875 0.046875
vt 0.585938 0.046875
vt 0.500000 0.101562
vt 0.500000 0.148438
vt 0.460938 0.148438
vt 0.460938 0.101562
vt 0.664062 0.148438
vt 0.601562 0.148438
vt 0.601562 0.117188
vt 0.664062 0.117188
vt 0.835938 0.148438
vt 0.781250 0.148438
vt 0.781250 0.117188
vt 0.835938 0.117188
vt 0.718750 0.148438
vt 0.718750 0.117188
vt 0.679688 0.093750
vt 0.734375 0.093750
vt 0.734375 0.109375
vt 0.679688 0.109375
vt 0.601562 0.062500
vt 0.664062 0.062500
vt 0.718750 0.179688
vt 0.718750 0.242188
vt 0.664062 0.242188
vt 0.664062 0.179688
vt 0.601562 0.179688
vt 0.835938 0.179688
vt 0.781250 0.179688
vt 0.679688 0.046875
vt 0.734375 0.046875
vt 0.734375 0.062500
vt 0.679688 0.062500
vt 0.750000 0.062500
vt 0.750000 0.093750
vt 0.664062 0.093750
vt 0.320312 0.851562
vt 0.320312 0.875000
vt 0.242188 0.875000
vt 0.242188 0.851562
vt 0.359375 0.851562
vt 0.359375 0.875000
vt 0.406250 0.710938
vt 0.406250 0.742188
vt 0.296875 0.742188
vt 0.296875 0.851562
vt 0.242188 0.742188
vt 0.460938 0.710938
vt 0.460938 0.742188
vt 0.242188 0.953125
vt 0.203125 0.953125
vt 0.203125 0.875000
vt 0.203125 0.851562
vt 0.710938 0.320312
vt 0.851562 0.320312
vt 0.851562 0.367188
vt 0.710938 0.367188
vt 0.601562 0.367188
vt 0.460938 0.179688
vt 0.335938 0.179688
vt 0.335938 0.101562
vt 0.460938 0.367188
vt 0.601562 0.476562
vt 0.773438 0.703125
vt 0.757812 0.703125
vt 0.757812 0.687500
vt 0.773438 0.687500
vt 0.617188 0.687500
vt 0.710938 0.687500
vt 0.789062 0.687500
vt 0.789062 0.703125
vt 0.773438 0.718750
vt 0.507812 0.742188
vt 0.507812 0.773438
vt 0.390625 0.742188
vt 0.523438 0.742188
vt 0.523438 0.773438
vt 0.593750 0.648438
vt 0.562500 0.648438
vt 0.562500 0.632812
vt 0.593750 0.632812
vt 0.539062 0.828125
vt 0.539062 0.859375
vt 0.523438 0.859375
vt 0.523438 0.828125
vt 0.585938 0.828125
vt 0.585938 0.859375
vt 0.523438 0.875000
vt 0.476562 0.875000
vt 0.476562 0.859375
vt 0.476562 0.828125
vt 0.757812 0.671875
vt 0.773438 0.671875
vt 0.664062 0.648438
vt 0.664062 0.664062
vt 0.648438 0.664062
vt 0.648438 0.648438
vt 0.593750 0.679688
vt 0.562500 0.679688
vt 0.562500 0.664062
vt 0.593750 0.664062
vt 0.632812 0.664062
vt 0.632812 0.648438
vt 0.601562 0.679688
vt 0.617188 0.679688
vt 0.601562 0.687500
vt 0.593750 0.703125
vt 0.562500 0.703125
vt 0.562500 0.687500
vt 0.593750 0.687500
vt 0.617188 0.664062
vt 0.617188 0.648438
vt 0.632812 0.679688
vt 0.609375 0.648438
vt 0.609375 0.632812
vt 0.617188 0.632812
vt 0.664062 0.632812
vt 0.671875 0.632812
vt 0.671875 0.648438
vt 0.664062 0.617188
vt 0.679688 0.617188
vt 0.679688 0.632812
vt 0.609375 0.664062
vt 0.625000 0.679688
vt 0.625000 0.687500
vt 0.632812 0.632812
vt 0.648438 0.632812
vt 0.671875 0.664062
vt 0.617188 0.617188
vt 0.609375 0.617188
vt 0.664062 0.601562
vt 0.648438 0.617188
vt 0.648438 0.601562
vt 0.695312 0.617188
vt 0.695312 0.632812
vt 0.632812 0.617188
vt 0.601562 0.703125
vt 0.562500 0.625000
vt 0.593750 0.625000
vt 0.242188 0.476562
vt 0.148438 0.507812
vt 0.148438 0.453125
vt 0.187500 0.453125
vt 0.187500 0.507812
vt 0.187500 0.656250
vt 0.148438 0.656250
vt 0.210938 0.421875
vt 0.250000 0.421875
vt 0.250000 0.453125
vt 0.210938 0.453125
vt 0.273438 0.421875
vt 0.273438 0.453125
vt 0.148438 0.421875
vt 0.187500 0.421875
vt 0.187500 0.382812
vt 0.210938 0.382812
vt 0.210938 0.492188
vt 0.187500 0.492188
vt 0.539062 0.765625
vt 0.187500 0.710938
vt 0.585938 0.718750
vt 0.585938 0.703125
vt 0.601562 0.718750
vt 0.601562 0.734375
vt 0.585938 0.734375
vt 0.570312 0.718750
vt 0.570312 0.734375
vt 0.617188 0.718750
vt 0.617188 0.734375
vt 0.601562 0.750000
vt 0.585938 0.750000
vt 0.601562 0.304688
vt 0.601562 0.273438
vt 0.210938 0.046875
vt 0.250000 0.046875
vt 0.250000 0.101562
vt 0.210938 0.101562
vt 0.335938 0.148438
vt 0.296875 0.148438
vt 0.296875 0.101562
vt 0.273438 0.265625
vt 0.335938 0.265625
vt 0.335938 0.296875
vt 0.273438 0.296875
vt 0.101562 0.265625
vt 0.156250 0.265625
vt 0.156250 0.296875
vt 0.101562 0.296875
vt 0.218750 0.265625
vt 0.218750 0.296875
vt 0.257812 0.257812
vt 0.203125 0.257812
vt 0.203125 0.242188
vt 0.257812 0.242188
vt 0.273438 0.210938
vt 0.335938 0.210938
vt 0.273438 0.328125
vt 0.273438 0.390625
vt 0.218750 0.390625
vt 0.218750 0.328125
vt 0.335938 0.328125
vt 0.156250 0.328125
vt 0.101562 0.328125
vt 0.257812 0.210938
vt 0.203125 0.210938
vt 0.203125 0.195312
vt 0.257812 0.195312
vt 0.187500 0.242188
vt 0.187500 0.210938
vt 0.273438 0.242188
vt 0.164062 0.851562
vt 0.164062 0.875000
vt 0.085938 0.875000
vt 0.085938 0.851562
vt 0.398438 0.851562
vt 0.398438 0.875000
vt 0.187500 0.742188
vt 0.078125 0.742188
vt 0.078125 0.710938
vt 0.187500 0.851562
vt 0.515625 0.710938
vt 0.515625 0.742188
vt 0.164062 0.953125
vt 0.351562 0.367188
vt 0.351562 0.320312
vt 0.742188 0.687500
vt 0.296875 0.773438
vt 0.429688 0.828125
vt 0.429688 0.859375
vt 0.414062 0.859375
vt 0.414062 0.828125
vt 0.632812 0.828125
vt 0.632812 0.859375
vt 0.429688 0.875000
vt 0.507812 0.648438
vt 0.507812 0.664062
vt 0.492188 0.664062
vt 0.492188 0.648438
vt 0.523438 0.648438
vt 0.523438 0.664062
vt 0.554688 0.687500
vt 0.539062 0.687500
vt 0.539062 0.679688
vt 0.554688 0.679688
vt 0.539062 0.648438
vt 0.539062 0.664062
vt 0.523438 0.679688
vt 0.539062 0.632812
vt 0.546875 0.632812
vt 0.546875 0.648438
vt 0.484375 0.648438
vt 0.484375 0.632812
vt 0.492188 0.632812
vt 0.476562 0.632812
vt 0.476562 0.617188
vt 0.492188 0.617188
vt 0.546875 0.664062
vt 0.531250 0.687500
vt 0.531250 0.679688
vt 0.507812 0.632812
vt 0.523438 0.632812
vt 0.484375 0.664062
vt 0.546875 0.617188
vt 0.539062 0.617188
vt 0.507812 0.601562
vt 0.507812 0.617188
vt 0.492188 0.601562
vt 0.460938 0.632812
vt 0.460938 0.617188
vt 0.523438 0.617188
vt 0.554688 0.703125
vt 0.406250 0.875000
vt 0.406250 0.898438
vt 0.359375 0.898438
vt 0.437500 0.875000
vt 0.437500 0.898438
vt 0.359375 0.945312
vt 0.328125 0.945312
vt 0.328125 0.898438
vt 0.328125 0.875000
vt 0.296875 0.875000
vt 0.296875 0.898438
vt 0.250000 0.898438
vt 0.250000 0.875000
vt 0.468750 0.875000
vt 0.468750 0.898438
vt 0.296875 0.945312
vt 0.335938 0.382812
vt 0.460938 0.382812
vt 0.335938 0.046875
vt 0.382812 0.046875
vt 0.382812 0.101562
vt 0.296875 0.046875
vt 0.414062 0.101562
vt 0.414062 0.046875
vt 0.460938 0.046875
vt 0.500000 0.046875
vt 0.679688 0.554688
vt 0.734375 0.554688
vt 0.867188 0.554688
vt 0.867188 0.601562
vt 0.828125 0.601562
vt 0.867188 0.507812
vt 0.054688 0.507812
vt 0.093750 0.507812
vt 0.242188 0.554688
vt 0.242188 0.507812
vt 0.679688 0.507812
vt 0.539062 0.179688
vt 0.539062 0.210938
vt 0.664062 0.210938
vt 0.257812 0.179688
vn -0.000000 -0.000000 1.000000
vn -1.000000 0.000000 -0.000000
vn 1.000000 -0.000000 0.000000
vn 0.000000 -0.000000 -1.000000
vn -0.000000 -1.000000 0.000000
vn -0.000000 1.000000 0.000000
usemtl SkinMat_DwarfSkin
s off
f 256/1/1 258/2/1 119/3/1 122/4/1
f 263/5/2 256/1/2 122/4/2 121/6/2
f 250/7/3 251/8/3 4/9/3 3/10/3
f 257/11/4 263/5/4 121/6/4 120/12/4
f 1/13/5 2/14/5 3/15/5 4/9/5
f 8/16/6 7/17/6 6/18/6 5/19/6
f 12/20/1 114/21/1 112/22/1 10/23/1
f 36/24/5 146/25/5 145/26/5 35/27/5
f 9/28/3 11/29/3 12/20/3 10/23/3
f 9/28/4 111/30/4 113/31/4 11/29/4
f 114/21/6 12/20/6 11/32/6 113/33/6
f 17/34/2 18/35/2 14/36/2 13/37/2
f 18/35/4 19/38/4 15/39/4 14/36/4
f 19/15/3 20/14/3 16/40/3 15/41/3
f 20/14/1 17/34/1 13/37/1 16/40/1
f 13/37/5 14/42/5 15/43/5 16/40/5
f 20/14/6 19/44/6 18/45/6 17/34/6
f 24/46/1 134/47/1 132/48/1 22/49/1
f 21/50/3 23/51/3 24/46/3 22/49/3
f 21/50/4 131/52/4 133/53/4 23/51/4
f 196/54/6 78/55/6 77/56/6 195/57/6
f 26/58/5 25/59/5 178/60/5 177/61/5
f 34/62/5 33/63/5 32/64/5 31/65/5
f 27/66/1 30/67/1 34/62/1 31/65/1
f 28/68/3 27/66/3 31/65/3 32/69/3
f 30/67/2 29/70/2 33/71/2 34/62/2
f 27/66/6 28/72/6 29/73/6 30/67/6
f 38/74/1 148/75/1 146/25/1 36/24/1
f 67/76/5 185/77/5 186/78/5 68/79/5
f 35/80/3 37/81/3 38/74/3 36/24/3
f 148/75/6 38/74/6 37/82/6 147/83/6
f 42/84/4 43/85/4 40/86/4 39/87/4
f 44/88/6 43/89/6 42/90/6 41/91/6
f 54/92/2 53/93/2 46/94/2 45/95/2
f 53/96/4 55/97/4 47/98/4 46/99/4
f 55/97/3 56/100/3 48/101/3 47/98/3
f 60/102/6 59/103/6 56/104/6 54/105/6
f 45/95/5 46/94/5 47/106/5 48/107/5
f 52/108/6 51/109/6 50/110/6 49/111/6
f 53/93/2 54/92/2 49/111/2 50/112/2
f 55/97/4 53/96/4 50/113/4 51/114/4
f 56/100/3 55/97/3 51/114/3 52/108/3
f 54/92/1 56/100/1 52/108/1 49/111/1
f 45/115/5 48/116/5 61/117/5 62/118/5
f 59/103/3 61/117/3 48/119/3 56/120/3
f 59/103/1 60/102/1 62/118/1 61/117/1
f 54/121/2 45/107/2 62/118/2 60/102/2
f 63/122/3 65/123/3 66/124/3 64/125/3
f 65/123/4 63/122/4 182/126/4 169/127/4
f 26/128/3 58/129/3 57/130/3 25/59/3
f 58/131/6 180/125/6 179/132/6 57/130/6
f 58/129/4 26/128/4 177/133/4 180/134/4
f 65/135/6 169/136/6 170/137/6 66/124/6
f 25/59/1 57/130/1 179/132/1 178/60/1
f 64/125/1 66/124/1 170/137/1 181/138/1
f 68/139/4 186/140/4 188/141/4 70/142/4
f 68/139/3 70/142/3 69/143/3 67/76/3
f 84/144/5 206/145/5 205/146/5 83/91/5
f 69/143/1 187/147/1 185/77/1 67/76/1
f 187/147/6 69/143/6 70/148/6 188/23/6
f 74/149/1 192/150/1 190/151/1 72/152/1
f 22/49/5 132/48/5 131/153/5 21/154/5
f 71/155/3 73/156/3 74/149/3 72/152/3
f 192/150/6 74/149/6 73/157/6 191/69/6
f 75/158/3 77/159/3 78/55/3 76/129/3
f 78/55/1 196/54/1 194/160/1 76/129/1
f 75/158/4 193/161/4 195/162/4 77/159/4
f 92/163/4 215/164/4 213/165/4 90/166/4
f 79/167/3 81/168/3 82/169/3 80/170/3
f 81/168/4 79/167/4 202/171/4 197/172/4
f 81/173/6 197/174/6 198/175/6 82/169/6
f 80/170/1 82/169/1 198/175/1 201/176/1
f 72/152/5 190/151/5 189/177/5 71/178/5
f 97/179/4 99/180/4 86/181/4 88/182/4
f 89/183/1 212/184/1 214/185/1 91/186/1
f 91/186/5 214/185/5 215/164/5 92/163/5
f 88/182/3 86/181/3 85/187/3 87/188/3
f 100/189/3 99/190/3 109/153/3 110/191/3
f 108/192/6 231/193/6 230/194/6 107/195/6
f 100/196/1 98/197/1 87/188/1 85/187/1
f 99/190/6 100/196/6 85/187/6 86/198/6
f 98/197/1 91/199/1 95/200/1 101/201/1
f 102/202/4 96/203/4 92/204/4 97/179/4
f 106/205/2 105/206/2 101/207/2 102/202/2
f 98/197/1 100/196/1 89/208/1 91/199/1
f 99/190/4 90/209/4 108/210/4 109/153/4
f 88/182/3 87/188/3 93/211/3 94/212/3
f 101/201/1 93/211/1 87/188/1 98/197/1
f 97/179/4 88/182/4 94/212/4 102/202/4
f 99/180/4 97/179/4 92/204/4 90/213/4
f 91/199/2 92/163/2 96/166/2 95/200/2
f 102/214/5 101/201/5 95/200/5 96/215/5
f 105/216/5 106/205/5 104/217/5 103/218/5
f 102/202/4 94/212/4 104/217/4 106/205/4
f 105/206/1 103/219/1 93/220/1 101/207/1
f 94/212/3 93/211/3 103/221/3 104/217/3
f 212/184/1 89/183/1 107/195/1 230/194/1
f 110/191/6 109/222/6 108/192/6 107/195/6
f 231/223/4 108/224/4 90/166/4 213/165/4
f 110/191/1 107/195/1 89/183/1 100/189/1
f 112/22/2 114/21/2 113/61/2 111/225/2
f 118/226/5 117/227/5 116/228/5 115/229/5
f 119/3/6 120/230/6 121/231/6 122/4/6
f 123/232/3 124/233/3 128/234/3 127/235/3
f 124/233/4 125/236/4 129/237/4 128/234/4
f 125/238/2 126/239/2 130/228/2 129/227/2
f 126/239/1 123/232/1 127/235/1 130/228/1
f 126/239/5 125/240/5 124/241/5 123/232/5
f 127/235/6 128/242/6 129/243/6 130/228/6
f 132/48/2 134/47/2 133/167/2 131/244/2
f 177/61/5 178/60/5 135/245/5 136/3/5
f 141/246/5 142/247/5 143/222/5 144/248/5
f 141/246/1 144/248/1 140/249/1 137/250/1
f 142/251/2 141/246/2 137/250/2 138/252/2
f 144/248/3 143/253/3 139/254/3 140/249/3
f 140/249/6 139/255/6 138/256/6 137/250/6
f 146/25/2 148/75/2 147/257/2 145/258/2
f 149/259/4 150/260/4 153/261/4 152/262/4
f 151/146/6 152/263/6 153/264/6 154/265/6
f 155/266/3 156/267/3 163/268/3 164/269/3
f 156/270/4 157/271/4 165/272/4 163/273/4
f 157/271/2 158/274/2 166/275/2 165/272/2
f 164/276/6 166/277/6 171/278/6 172/279/6
f 158/280/5 157/281/5 156/267/5 155/266/5
f 159/282/6 160/283/6 161/284/6 162/285/6
f 160/286/3 159/282/3 164/269/3 163/268/3
f 161/287/4 160/288/4 163/273/4 165/272/4
f 162/285/2 161/287/2 165/272/2 166/275/2
f 159/282/1 162/285/1 166/275/1 164/269/1
f 174/289/5 173/290/5 158/291/5 155/292/5
f 166/293/2 158/294/2 173/290/2 171/278/2
f 173/290/1 174/289/1 172/279/1 171/278/1
f 172/279/3 174/289/3 155/280/3 164/295/3
f 176/296/2 184/297/2 183/298/2 175/299/2
f 169/127/4 182/126/4 175/300/4 183/301/4
f 135/245/2 167/302/2 168/303/2 136/304/2
f 167/302/6 179/132/6 180/125/6 168/305/6
f 180/134/4 177/133/4 136/306/4 168/307/4
f 184/297/6 170/137/6 169/136/6 183/308/6
f 178/60/1 179/132/1 167/302/1 135/245/1
f 181/138/1 170/137/1 184/297/1 176/296/1
f 185/77/2 187/147/2 188/309/2 186/310/2
f 190/151/2 192/150/2 191/64/2 189/311/2
f 194/160/2 196/54/2 195/312/2 193/130/2
f 200/313/2 204/314/2 203/315/2 199/316/2
f 197/172/4 202/171/4 199/317/4 203/318/4
f 204/314/6 198/175/6 197/174/6 203/319/6
f 201/176/1 198/175/1 204/314/1 200/313/1
f 211/320/4 209/321/4 222/322/4 220/323/4
f 210/324/2 208/325/2 209/321/2 211/320/2
f 233/326/2 232/327/2 222/328/2 223/329/2
f 208/325/1 210/324/1 221/330/1 223/331/1
f 209/332/6 208/325/6 223/331/6 222/328/6
f 224/333/1 218/334/1 214/335/1 221/330/1
f 220/323/4 215/336/4 219/337/4 225/338/4
f 225/338/3 224/339/3 228/340/3 229/341/3
f 214/335/1 212/342/1 223/331/1 221/330/1
f 232/327/4 231/343/4 213/344/4 222/328/4
f 217/345/2 216/346/2 210/324/2 211/320/2
f 221/330/1 210/324/1 216/346/1 224/333/1
f 225/338/4 217/345/4 211/320/4 220/323/4
f 213/347/4 215/336/4 220/323/4 222/322/4
f 218/334/3 219/165/3 215/164/3 214/335/3
f 219/348/5 218/334/5 224/333/5 225/349/5
f 226/350/5 227/351/5 229/341/5 228/352/5
f 229/341/4 227/351/4 217/345/4 225/338/4
f 224/339/1 216/353/1 226/354/1 228/340/1
f 227/351/2 226/355/2 216/346/2 217/345/2
f 230/194/6 231/193/6 232/356/6 233/326/6
f 223/329/1 212/184/1 230/194/1 233/326/1
f 234/357/3 236/358/3 237/359/3 235/127/3
f 236/358/4 234/357/4 243/360/4 238/361/4
f 236/362/6 238/363/6 239/364/6 237/359/6
f 235/127/1 237/359/1 239/364/1 242/365/1
f 241/366/2 245/367/2 244/368/2 240/369/2
f 238/361/4 243/360/4 240/370/4 244/371/4
f 245/367/6 239/364/6 238/363/6 244/372/6
f 242/365/1 239/364/1 245/367/1 241/366/1
f 10/23/5 112/22/5 111/373/5 9/374/5
f 247/375/3 149/376/3 152/377/3 151/146/3
f 150/260/2 246/378/2 154/265/2 153/261/2
f 246/378/1 247/375/1 151/146/1 154/265/1
f 246/146/5 150/263/5 149/264/5 247/265/5
f 41/91/2 42/379/2 39/380/2 249/381/2
f 43/85/3 44/88/3 248/382/3 40/86/3
f 44/88/1 41/91/1 249/381/1 248/382/1
f 249/88/5 39/89/5 40/90/5 248/91/5
f 252/383/2 253/384/2 5/19/2 6/31/2
f 254/7/4 252/385/4 6/386/4 7/387/4
f 1/13/1 4/9/1 251/8/1 264/384/1
f 265/385/4 250/7/4 3/10/4 2/388/4
f 259/2/1 260/1/1 118/226/1 115/229/1
f 260/226/5 261/227/5 262/228/5 259/229/5
f 255/8/3 254/7/3 7/387/3 8/16/3
f 261/5/4 262/11/4 116/389/4 117/390/4
f 258/2/3 257/391/3 120/61/3 119/3/3
f 262/391/3 259/2/3 115/229/3 116/392/3
f 260/1/2 261/5/2 117/390/2 118/226/2
f 2/393/2 1/13/2 264/384/2 265/383/2
f 264/13/5 265/14/5 250/15/5 251/9/5
f 253/384/1 255/8/1 8/16/1 5/19/1
f 255/13/6 254/14/6 252/15/6 253/9/6
f 258/226/6 257/227/6 263/228/6 256/229/6
f 268/78/1 266/281/1 206/145/1 84/144/1
f 83/394/3 267/395/3 268/78/3 84/144/3
f 83/394/4 205/111/4 207/396/4 267/395/4
f 266/144/6 268/145/6 267/146/6 207/91/6
f 206/145/2 266/281/2 207/289/2 205/397/2
