<?xml version="1.0" encoding="UTF-8" standalone="no"?>
<!-- Created with Inkscape (http://www.inkscape.org/) -->

<svg
   xmlns:dc="http://purl.org/dc/elements/1.1/"
   xmlns:cc="http://creativecommons.org/ns#"
   xmlns:rdf="http://www.w3.org/1999/02/22-rdf-syntax-ns#"
   xmlns:svg="http://www.w3.org/2000/svg"
   xmlns="http://www.w3.org/2000/svg"
   xmlns:sodipodi="http://sodipodi.sourceforge.net/DTD/sodipodi-0.dtd"
   xmlns:inkscape="http://www.inkscape.org/namespaces/inkscape"
   width="32"
   height="32"
   id="svg2"
   version="1.1"
   inkscape:version="0.48.4 r9939"
   sodipodi:docname="MigLayout.svg">
  <defs
     id="defs4" />
  <sodipodi:namedview
     id="base"
     pagecolor="#ffffff"
     bordercolor="#666666"
     borderopacity="1.0"
     inkscape:pageopacity="0.0"
     inkscape:pageshadow="2"
     inkscape:zoom="3.959798"
     inkscape:cx="-10.154578"
     inkscape:cy="19.565777"
     inkscape:document-units="px"
     inkscape:current-layer="layer1"
     showgrid="true"
     inkscape:window-width="1008"
     inkscape:window-height="577"
     inkscape:window-x="341"
     inkscape:window-y="231"
     inkscape:window-maximized="0">
    <inkscape:grid
       empspacing="5"
       visible="true"
       enabled="true"
       snapvisiblegridlinesonly="true"
       type="xygrid"
       id="grid3645" />
  </sodipodi:namedview>
  <metadata
     id="metadata7">
    <rdf:RDF>
      <cc:Work
         rdf:about="">
        <dc:format>image/svg+xml</dc:format>
        <dc:type
           rdf:resource="http://purl.org/dc/dcmitype/StillImage" />
        <dc:title></dc:title>
      </cc:Work>
    </rdf:RDF>
  </metadata>
  <g
     inkscape:label="Layer 1"
     inkscape:groupmode="layer"
     id="layer1"
     transform="translate(0,-1020.3622)">
    <rect
       style="fill:#ff9955;fill-opacity:1;stroke:none"
       id="rect3005-7-9-9"
       width="10.913064"
       height="2.9285715"
       x="1031.4921"
       y="21.039619"
       transform="matrix(0,1,1,0,0,0)" />
    <rect
       style="fill:#ff9955;fill-opacity:1;stroke:none"
       id="rect3005-7-9-9-2"
       width="21.81076"
       height="2.9099624"
       x="1020.4373"
       y="0.02266272"
       transform="matrix(0,1,0.99915955,-0.04099006,0,0)" />
    <rect
       style="fill:#ff9955;fill-opacity:1;stroke:none"
       id="rect3005-7-9-9-2-2"
       width="21.81076"
       height="2.9730451"
       x="1021.0889"
       y="11.023408"
       transform="matrix(0,1,0.99919486,-0.04012033,0,0)" />
    <rect
       transform="matrix(0.43603368,0.89993035,0.88974101,-0.45646569,0,0)"
       y="-445.37128"
       x="909.43384"
       height="2.9082749"
       width="12.140925"
       id="rect4162"
       style="fill:#ff9955;fill-opacity:1;stroke:none" />
    <rect
       style="fill:#ff9955;fill-opacity:1;stroke:none"
       id="rect3005-7-9-9-2-2-8"
       width="12.140925"
       height="2.9082749"
       x="903.24146"
       y="-458.08063"
       transform="matrix(-0.43603368,0.89993035,-0.88974101,-0.45646569,0,0)" />
    <rect
       style="fill:#ff9955;fill-opacity:1;stroke:none"
       id="rect3005-7-9-9-7"
       width="2.4309211"
       height="2.9285715"
       x="1026.9294"
       y="16.012833"
       transform="matrix(0,1,1,0,0,0)" />
    <rect
       style="fill:#ff9955;fill-opacity:1;stroke:none"
       id="rect3005-7-9-9-3"
       width="16.582706"
       height="2.9285715"
       x="1031.8313"
       y="29.093191"
       transform="matrix(0,1,1,0,0,0)" />
    <rect
       style="fill:#ff9955;fill-opacity:1;stroke:none"
       id="rect3005-7-9-9-3-6"
       width="10.913064"
       height="2.9285715"
       x="-47.247437"
       y="1031.0242"
       transform="matrix(-0.99989576,-0.01443855,-0.01443855,0.99989576,0,0)" />
    <rect
       style="fill:#ff9955;fill-opacity:1;stroke:none"
       id="rect3005-7-9-9-3-6-1"
       width="10.913064"
       height="2.9285715"
       x="-47.167309"
       y="1039.0797"
       transform="matrix(-0.99989576,-0.01443855,-0.01443855,0.99989576,0,0)" />
    <rect
       style="fill:#ff9955;fill-opacity:1;stroke:none"
       id="rect3005-7-9-9-3-6-1-2"
       width="10.913064"
       height="2.9285715"
       x="-40.132626"
       y="1045.1891"
       transform="matrix(-0.99996872,-0.00790925,-0.00790925,0.99996872,0,0)" />
    <rect
       style="fill:#ff9955;fill-opacity:1;stroke:none"
       id="rect3005-7-9-9-31"
       width="10.913064"
       height="2.9285715"
       x="1031.3582"
       y="16.084263"
       transform="matrix(0,1,1,0,0,0)" />
    <rect
       style="fill:#ff9955;fill-opacity:1;stroke:none"
       id="rect3005-7-9-9-7-4"
       width="2.4309211"
       height="2.9285715"
       x="1030.3909"
       y="5.6062655"
       transform="matrix(0,1,1,0,0,0)" />
  </g>
</svg>
